<svg width="1280" height="640" viewBox="0 0 1280 640" xmlns="http://www.w3.org/2000/svg"><rect width="1280" height="640" fill="#FFFBF3"/><circle cx="1080" cy="120" r="260" fill="#DCFCE7"/><circle cx="180" cy="560" r="220" fill="#FDE68A" opacity="0.45"/><rect x="78" y="88" width="1124" height="464" rx="48" fill="#FFFFFF" stroke="#E5E7EB" stroke-width="2"/><rect x="118" y="128" width="160" height="160" rx="42" fill="#22C55E"/><g transform="translate(118 128) scale(0.3125)"><title id="title">Covallaby icon</title><desc id="desc">A cute simplified wallaby face in a rounded square.</desc><path d="M178 191 C139 122 146 70 196 105 C223 124 231 164 225 197 Z" fill="#D9A066"/><path d="M334 191 C373 122 366 70 316 105 C289 124 281 164 287 197 Z" fill="#D9A066"/><path d="M192 170 C171 119 181 98 204 128 C219 148 222 170 217 190 Z" fill="#F4C48A"/><path d="M320 170 C341 119 331 98 308 128 C293 148 290 170 295 190 Z" fill="#F4C48A"/><circle cx="256" cy="265" r="132" fill="#F4C48A"/><path d="M163 279 C164 204 202 161 256 161 C310 161 348 204 349 279 C350 348 310 395 256 395 C202 395 162 348 163 279 Z" fill="#E8B270"/><ellipse cx="216" cy="263" rx="18" ry="22" fill="#111827"/><ellipse cx="296" cy="263" rx="18" ry="22" fill="#111827"/><circle cx="210" cy="255" r="5" fill="white"/><circle cx="290" cy="255" r="5" fill="white"/><path d="M256 289 C243 289 238 303 256 312 C274 303 269 289 256 289 Z" fill="#111827"/><path d="M228 335 C244 351 269 351 285 335" stroke="#111827" stroke-width="14" stroke-linecap="round" fill="none"/></g><text x="320" y="198" font-family="Inter, ui-sans-serif, system-ui, -apple-system, BlinkMacSystemFont, Segoe UI, sans-serif" font-size="92" font-weight="850" letter-spacing="-3" fill="#111827">Covallaby</text><text x="326" y="258" font-family="Inter, ui-sans-serif, system-ui, -apple-system, BlinkMacSystemFont, Segoe UI, sans-serif" font-size="34" font-weight="600" fill="#4B5563">Beautiful coverage reports for your pull requests.</text><rect x="326" y="320" width="610" height="126" rx="24" fill="#F9FAFB" stroke="#E5E7EB"/><text x="358" y="370" font-family="ui-monospace, SFMono-Regular, Menlo, monospace" font-size="24" fill="#111827">- uses: covallaby/action@v1</text><text x="358" y="412" font-family="ui-monospace, SFMono-Regular, Menlo, monospace" font-size="24" fill="#059669">  with: { files: coverage/lcov.info }</text></svg>
