<svg width="1200" height="260" viewBox="0 0 1200 260" xmlns="http://www.w3.org/2000/svg" role="img"><rect x="32" y="32" width="196" height="196" rx="48" fill="#22C55E"/><g transform="translate(32 32) scale(0.3828125)"><title id="title">Covallaby icon</title><desc id="desc">A cute simplified wallaby face in a rounded square.</desc><path d="M178 191 C139 122 146 70 196 105 C223 124 231 164 225 197 Z" fill="#D9A066"/><path d="M334 191 C373 122 366 70 316 105 C289 124 281 164 287 197 Z" fill="#D9A066"/><path d="M192 170 C171 119 181 98 204 128 C219 148 222 170 217 190 Z" fill="#F4C48A"/><path d="M320 170 C341 119 331 98 308 128 C293 148 290 170 295 190 Z" fill="#F4C48A"/><circle cx="256" cy="265" r="132" fill="#F4C48A"/><path d="M163 279 C164 204 202 161 256 161 C310 161 348 204 349 279 C350 348 310 395 256 395 C202 395 162 348 163 279 Z" fill="#E8B270"/><ellipse cx="216" cy="263" rx="18" ry="22" fill="#111827"/><ellipse cx="296" cy="263" rx="18" ry="22" fill="#111827"/><circle cx="210" cy="255" r="5" fill="white"/><circle cx="290" cy="255" r="5" fill="white"/><path d="M256 289 C243 289 238 303 256 312 C274 303 269 289 256 289 Z" fill="#111827"/><path d="M228 335 C244 351 269 351 285 335" stroke="#111827" stroke-width="14" stroke-linecap="round" fill="none"/></g><text x="270" y="160" font-family="Inter, ui-sans-serif, system-ui, -apple-system, BlinkMacSystemFont, Segoe UI, sans-serif" font-size="96" font-weight="850" letter-spacing="-3" fill="#111827">Covallaby</text><text x="276" y="204" font-family="Inter, ui-sans-serif, system-ui, -apple-system, BlinkMacSystemFont, Segoe UI, sans-serif" font-size="28" font-weight="600" fill="#6B7280">Beautiful coverage reports for your pull requests.</text></svg>
